<?xml version="1.0" encoding="utf-8"?>
<!-- Generator: Adobe Illustrator 21.1.0, SVG Export Plug-In . SVG Version: 6.00 Build 0)  -->
<svg version="1.1" id="mapa" xmlns="http://www.w3.org/2000/svg" xmlns:xlink="http://www.w3.org/1999/xlink" x="0px" y="0px"
	 viewBox="0 0 40 40" style="enable-background:new 0 0 40 40;" xml:space="preserve">
<style type="text/css">
	.st0{fill-rule:evenodd;clip-rule:evenodd;fill:#606060;}
	.st1{fill:#606060;}
</style>
<g>
	<g>
		<g>
			<polygon class="st0" points="16.9,28.4 9.4,21.7 8.4,23 17,30.8 32,12.2 30.7,11.2 			"/>
		</g>
		<g>
			<g>
				<path class="st1" d="M20.2,39.6c-10.9,0-19.8-8.9-19.8-19.8S9.3,0,20.2,0S40,8.9,40,19.8S31.1,39.6,20.2,39.6z M20.2,1.3
					C10,1.3,1.7,9.6,1.7,19.8S10,38.3,20.2,38.3S38.7,30,38.7,19.8S30.4,1.3,20.2,1.3z"/>
			</g>
		</g>
	</g>
</g>
<circle class="st0" cx="30.5" cy="12.6" r="2.6"/>
<circle class="st0" cx="9.5" cy="22.6" r="2.6"/>
</svg>
