<?xml version="1.0" encoding="utf-8"?>
<!-- Generator: Adobe Illustrator 21.1.0, SVG Export Plug-In . SVG Version: 6.00 Build 0)  -->
<svg version="1.1" id="mapa" xmlns="http://www.w3.org/2000/svg" xmlns:xlink="http://www.w3.org/1999/xlink" x="0px" y="0px"
	 viewBox="0 0 40 40" style="enable-background:new 0 0 40 40;" xml:space="preserve">
<style type="text/css">
	.st0{fill:#606060;}
	
</style>
<path class="st0" d="M20,40C9,40,0,31,0,20S9,0,20,0s20,9,20,20S31,40,20,40z M20,1.4C9.7,1.4,1.4,9.8,1.4,20S9.7,38.6,20,38.6
	S38.6,30.3,38.6,20S30.2,1.4,20,1.4z"/>
<path class="st0" d="M20,34.3c-0.8,0-1.6-0.4-2-1L11,23.8c-0.1-0.1-0.1-0.2-0.2-0.3c-1.4-1.9-2.1-4.2-2.1-6.5
	c0-6.2,5-11.2,11.2-11.2c6.2,0,11.2,5,11.2,11.2c0,2.3-0.7,4.6-2.1,6.5c0,0.1-0.1,0.2-0.2,0.3L22,33.2C21.5,33.9,20.8,34.3,20,34.3z
	 M12.2,23.1l6.8,9.3c0.4,0.6,1.4,0.6,1.9,0l6.8-9.3c0-0.1,0-0.1,0.1-0.2c1.3-1.8,2-3.8,2-5.9c0-5.4-4.4-9.8-9.8-9.8
	c-5.4,0-9.8,4.4-9.8,9.8c0,2.1,0.7,4.1,1.9,5.8C12.2,23,12.2,23,12.2,23.1z M27.8,23C27.8,23,27.8,23,27.8,23L27.8,23z M12.2,23
	L12.2,23L12.2,23z"/>
<g>
	<path class="st0" d="M20,24.2c-3.1,0-5.6-2.5-5.6-5.6c0-3.1,2.5-5.6,5.6-5.6s5.6,2.5,5.6,5.6S23,24.2,20,24.2z M20,14.4
		c-2.3,0-4.2,1.9-4.2,4.2c0,2.3,1.9,4.2,4.2,4.2s4.2-1.9,4.2-4.2C24.2,16.2,22.3,14.4,20,14.4z"/>
</g>
</svg>
