<?xml version="1.0" encoding="utf-8"?>
<!-- Generator: Adobe Illustrator 21.1.0, SVG Export Plug-In . SVG Version: 6.00 Build 0)  -->
<svg version="1.1" id="mapa" xmlns="http://www.w3.org/2000/svg" xmlns:xlink="http://www.w3.org/1999/xlink" x="0px" y="0px"
	 viewBox="0 0 40 40" style="enable-background:new 0 0 40 40;" xml:space="preserve">
<style type="text/css">
	.st0{fill-rule:evenodd;clip-rule:evenodd;fill:#00cc9a;}
	.st1{fill:#00cc9a;}
</style>
<g>
	<g>
		<g>
			<path class="st0" d="M6.4,30.8h26.8V10.9H6.4V30.8z M31.1,12.1L19.8,23.4L8.4,12.1H31.1z M7.6,12.9l7.2,7.2l-7.2,8.5V12.9z
				 M8.3,29.6l7.4-8.7l4.2,4.2l4.2-4.2l7.4,8.7H8.3z M32,28.6l-7.2-8.5l7.2-7.2V28.6z"/>
		</g>
		<g>
			<g>
				<path class="st1" d="M19.8,40C8.9,40,0,31.1,0,20.2S8.9,0.4,19.8,0.4s19.8,8.9,19.8,19.8S30.7,40,19.8,40z M19.8,1.8
					C9.6,1.8,1.3,10.1,1.3,20.2s8.3,18.4,18.4,18.4s18.4-8.3,18.4-18.4S29.9,1.8,19.8,1.8z"/>
			</g>
		</g>
	</g>
</g>
</svg>
