<?xml version="1.0" encoding="utf-8"?>
<!-- Generator: Adobe Illustrator 21.0.2, SVG Export Plug-In . SVG Version: 6.00 Build 0)  -->
<svg version="1.1" id="Capa_1" xmlns="http://www.w3.org/2000/svg" xmlns:xlink="http://www.w3.org/1999/xlink" x="0px" y="0px"
	 viewBox="0 0 2340 669.9" style="enable-background:new 0 0 2340 669.9;" xml:space="preserve">
<style type="text/css">
	.st0{fill:#00CC99;}
	.st1{fill:#1A3382;}
</style>
<g>
	<g>
		<g>
			<g>
				<g>
					<polygon class="st0" points="0,78.2 0,364.3 201.5,364.3 201.5,269.5 105,269.5 105,173.1 201.5,173.1 201.5,78.2 					"/>
				</g>
			</g>
			<g>
				<g>
					<polygon class="st0" points="304.7,78.2 304.7,173.1 401.2,173.1 401.2,269.5 304.7,269.5 304.7,364.3 506.2,364.3 506.2,78.2 
											"/>
				</g>
			</g>
		</g>
		<g>
			<g>
				<g>
					<path class="st1" d="M949.6,367.1h-25.4v-159c0-58.4-22.9-87.9-68.6-87.9c-42.6,0-75.7,30.5-75.7,88.4V367h-25.4V198
						c0-48.8-27.4-77.7-69.6-77.7c-40.1,0-74.6,34.5-74.6,86.3v160.5h-25.4V103.6h25.4v41.6C621,120.3,650.9,97,688,97
						c42.2,0,71.6,21.3,83.3,52.8c15.2-35,48.7-52.8,87.4-52.8c58.4,0,90.9,42.2,90.9,100.6V367.1z"/>
				</g>
			</g>
			<g>
				<g>
					<path class="st1" d="M1023.2,103.6h25.4v263.6h-25.4V103.6z M1035.9,12.7c11.7,0,20.8,9.1,20.8,20.8s-9.1,20.8-20.8,20.8
						c-11.7,0-20.8-9.1-20.8-20.8S1024.3,12.7,1035.9,12.7"/>
				</g>
			</g>
			<g>
				<g>
					<path class="st1" d="M1145.6,277.3c15.7,10.7,35.6,18.8,57.4,18.8c13.2,0,18.3-4.6,18.3-9.6c0-22.3-120.9-12.7-120.9-107.2
						c0-52.8,47.7-86.8,109.7-86.8c49.8,0,82.3,22.3,101.1,44.2l-63.5,50.3c-9.6-8.6-22.3-17.3-39.6-17.3c-10.7,0-15.2,4.6-15.2,9.1
						c0,26.4,122.4,15.8,122.4,104.6c0,59.4-46.2,90.4-111.7,90.4c-50.3,0-94.5-22.3-111.7-42.6L1145.6,277.3z"/>
				</g>
			</g>
			<g>
				<g>
					<path class="st1" d="M1455.4,300.6c14.2,0,28.4-6.1,28.4-20.3c0-13.7-13.2-21.4-29-21.4c-14.7,0-27.9,7.6-27.9,21.4
						C1426.9,294.5,1441.2,300.6,1455.4,300.6 M1434.6,194.5c18.3,0,37.1,4.6,47.7,10.2v-8.2c0-10.7-10.2-21.3-35-21.3
						c-21.3,0-43.7,5.6-65.5,15.2l-36.6-64c29-19.8,73.6-34,113.7-34c97,0,121.9,52.8,121.9,115.3v159.5h-88.3l-5.6-14.7
						c-14.7,15.2-37.6,21.3-63.5,21.3c-48.2,0-95-29.9-95-89.9C1328.4,230,1369.6,194.5,1434.6,194.5"/>
				</g>
			</g>
			<g>
				<g>
					<rect x="1622.5" class="st1" width="98.5" height="367.2"/>
				</g>
			</g>
			<g>
				<g>
					<path class="st1" d="M1763.6,271.7V99h98.5v157.9c0,20.3,12.2,30,28.5,30c19.3,0,28.4-13.2,28.4-28.4V99h98.5v268.1h-96v-25.4
						c-9.7,13.7-34,32-67,32C1791.1,373.7,1763.6,333.6,1763.6,271.7"/>
				</g>
			</g>
			<g>
				<g>
					<path class="st1" d="M2195.3,176.7c-31.5,0-49.8,23.4-49.8,56.4c0,34,18.8,55.9,49.8,55.9c32.5,0,49.3-25.4,49.3-55.9
						C2244.6,197.5,2224.7,176.7,2195.3,176.7 M2340,367.1h-91.4v-17.3c-10.2,10.2-33.5,23.9-68.5,23.9
						c-78.2,0-133.1-58.4-133.1-140.7c0-82.8,48.7-140.7,126.4-140.7c34.5,0,58.4,15.2,68.1,23.4V0h98.5V367.1z"/>
				</g>
			</g>
		</g>
	</g>
	<g>
		<g>
			<path class="st0" d="M323.9,643.4c3.3,9.6,10.4,19.6,28.1,19.6c13.9,0,24.4-8.6,24.4-22.8c0-33.5-56.1-24.1-56.1-61.4
				c0-15.2,11.6-27.9,31.2-27.9c19.3,0,28.4,13,31.2,20.5l-7.1,2.6c-2.8-6.1-9.9-15.5-24.1-15.5c-15,0-22.8,9.2-22.8,20.5
				c0,29.9,56.3,23.3,56.3,60.7c0,17.2-12.7,31-33.2,31c-21.3,0-31.2-12.9-35.2-24.8L323.9,643.4z"/>
			<path class="st0" d="M351.8,672c-24.2,0-33.1-16-36.3-25.6l-0.4-1.1l9.6-3.5l0.4,1.2c4.4,12.7,13.2,18.8,26.9,18.8
				c13.9,0,23.2-8.7,23.2-21.5c0-15.5-12.7-21.4-26.2-27.6c-14.7-6.8-29.9-13.8-29.9-33.8c0-17.2,13.3-29.1,32.4-29.1
				c23.2,0,31,17.7,32.4,21.3l0.4,1.2l-9.3,3.5l-0.5-1c-2-4.4-8.4-14.8-23-14.8c-13.1,0-21.5,7.5-21.5,19.2
				c0,13.3,12.2,19.1,25.1,25.3c14.6,7,31.2,14.9,31.2,35.5C386.2,658.8,372,672,351.8,672z M318.2,646.8c3.3,9,11.9,22.8,33.6,22.8
				c18.8,0,31.9-12.3,31.9-29.8c0-19-15.2-26.2-29.8-33.2c-13.6-6.5-26.5-12.6-26.5-27.5c0-15,12.1-21.7,24-21.7
				c15,0,22,9.9,24.7,15.2l4.8-1.8c-2.2-4.9-9.9-18.5-29.6-18.5c-17.6,0-30,11-30,26.7c0,18.4,14.5,25.1,28.5,31.5
				c13.6,6.3,27.7,12.8,27.7,29.9c0,14.4-10.3,24-25.7,24c-14.3,0-24-6.5-28.8-19.3L318.2,646.8z"/>
		</g>
		<g>
			<path class="st0" d="M414.7,553.1h52.7v7.8h-44.2v44.9H462v7.8h-38.8V661h46.1v7.8h-54.5L414.7,553.1L414.7,553.1z"/>
			<path class="st0" d="M470.4,669.9h-56.9v-118h55.1v10.2h-44.2v42.4h38.8v10.2h-38.8v44.9h46.1L470.4,669.9L470.4,669.9z
				 M415.9,667.4h52v-5.3h-46.1v-49.8h38.8V607h-38.8v-47.4H466v-5.3h-50.2L415.9,667.4L415.9,667.4z"/>
		</g>
		<g>
			<path class="st0" d="M590,656.4c-3.1,3.3-17.2,14.4-38.3,14.4c-32.8,0-57.9-25.7-57.9-59.9s25.7-59.9,57.4-59.9
				c18.3,0,31,8.1,36.5,12.7l-3,7.6c-4-3.5-16.2-12.4-33.5-12.4c-26.9,0-48.7,22.1-48.7,52s20.6,52,49.2,52
				c20,0,32.2-10.9,35.5-13.9L590,656.4z"/>
			<path class="st0" d="M551.7,672c-33.7,0-59.2-26.3-59.2-61.2c0-34.3,25.8-61.2,58.7-61.2c19.8,0,32.7,9.1,37.3,13l0.7,0.6
				l-3.9,10.1l-1.3-1.2c-3.2-2.8-15.2-12.1-32.7-12.1c-26.6,0-47.5,22.3-47.5,50.8c0,29.4,20.2,50.8,48,50.8
				c8.9,0,22.2-2.4,34.7-13.5l1.3-1.2l3.7,9.8l-0.5,0.6C590.7,657.4,576.6,672,551.7,672z M551.2,552.2c-31.5,0-56.2,25.8-56.2,58.7
				c0,33.5,24.4,58.7,56.7,58.7c18.9,0,32.5-9.2,36.9-13.4l-1.9-5c-12.6,10.7-25.9,13-35,13c-29.2,0-50.4-22.4-50.4-53.2
				c0-29.8,21.9-53.2,49.9-53.2c16.5,0,28.3,7.8,33,11.6l2-5.2C581.9,560.6,569.6,552.2,551.2,552.2z"/>
		</g>
		<g>
			<path class="st0" d="M618.7,553.1h26.6c22.4,0,34.5,14.5,34.5,31.4c0,14.2-8.6,25.4-21.5,29.7l29.4,54.5h-9.4l-27.9-52.8h-23.3
				v52.8h-8.4L618.7,553.1L618.7,553.1z M645.6,608.2c15.5,0,25.3-9.1,25.3-23.8c0-13.7-9.2-23.6-25.8-23.6h-18v47.4L645.6,608.2
				L645.6,608.2z"/>
			<path class="st0" d="M689.7,669.9h-12.2l-27.9-52.8h-21.3v52.8h-10.9v-118h27.8c24.7,0,35.7,16.4,35.7,32.6
				c0,14-8,25.5-20.9,30.4L689.7,669.9z M679,667.4h6.6l-29.1-53.9l1.4-0.5c12.7-4.2,20.6-15.2,20.6-28.5c0-15-10.3-30.1-33.3-30.1
				h-25.3v113.1h5.9v-52.8h25.3L679,667.4z M645.6,609.5h-19.7v-49.8h19.2c16.4,0,27,9.7,27,24.8
				C672.1,599.9,661.9,609.5,645.6,609.5z M628.3,607h17.2c14.8,0,24-8.6,24-22.5c0-13.8-9.4-22.4-24.5-22.4h-16.8L628.3,607
				L628.3,607z"/>
		</g>
		<g>
			<path class="st0" d="M714.1,553.1h52.7v7.8h-44.3v44.9h38.8v7.8h-38.8V661h46.1v7.8h-54.5V553.1z"/>
			<path class="st0" d="M769.8,669.9h-56.9v-118H768v10.2h-44.2v42.4h38.7v10.2h-38.8v44.9h46.1V669.9z M715.3,667.4h52v-5.3h-46.1
				v-49.8H760V607h-38.8v-47.4h44.3v-5.3h-50.2V667.4z"/>
		</g>
		<g>
			<path class="st0" d="M822.9,560.9h-33.2v-7.8h74.8v7.8h-33.2v107.8h-8.4L822.9,560.9L822.9,560.9z"/>
			<path class="st0" d="M832.5,669.9h-10.9V562.1h-33.2v-10.2h77.2v10.2h-33.1V669.9z M824.1,667.4h5.9V559.6h33.2v-5.3h-72.3v5.3
				h33.2L824.1,667.4L824.1,667.4z"/>
		</g>
		<g>
			<path class="st0" d="M895.5,627.2l-15.7,41.4h-8.6l44.2-115.5h8.3l44.2,115.5h-8.6l-15.7-41.4H895.5z M919.6,562.7l-21.1,56.8
				h42.3L919.6,562.7z"/>
			<path class="st0" d="M969.8,669.9h-11.3l-15.7-41.4h-46.5l-15.7,41.4h-11.2l45.2-118h10L969.8,669.9z M960.2,667.4h5.9
				l-43.3-113.1h-6.6l-43.3,113.1h5.9l15.7-41.4h49.9L960.2,667.4z M942.5,620.7h-45.8l22.9-61.6L942.5,620.7z M900.2,618.2h38.7
				l-19.3-52L900.2,618.2z"/>
		</g>
		<g>
			<path class="st0" d="M992.7,553.1h26.6c22.4,0,34.5,14.5,34.5,31.4c0,14.2-8.6,25.4-21.5,29.7l29.4,54.5h-9.4l-27.9-52.8h-23.3
				v52.8h-8.4L992.7,553.1L992.7,553.1z M1019.6,608.2c15.5,0,25.3-9.1,25.3-23.8c0-13.7-9.2-23.6-25.8-23.6h-18v47.4L1019.6,608.2
				L1019.6,608.2z"/>
			<path class="st0" d="M1063.8,669.9h-12.2l-27.9-52.8h-21.3v52.8h-10.9v-118h27.8c24.7,0,35.7,16.4,35.7,32.6
				c0,14-8,25.5-20.9,30.4L1063.8,669.9z M1053,667.4h6.6l-29.1-53.9l1.4-0.5c12.7-4.2,20.6-15.2,20.6-28.5
				c0-15-10.3-30.1-33.3-30.1h-25.3v113.1h5.9v-52.8h25.3L1053,667.4z M1019.6,609.5h-19.7v-49.8h19.2c16.4,0,27,9.7,27,24.8
				C1046.1,599.9,1036,609.5,1019.6,609.5z M1002.4,607h17.2c14.8,0,24-8.6,24-22.5c0-13.8-9.4-22.4-24.5-22.4h-16.8V607H1002.4z"/>
		</g>
		<g>
			<path class="st0" d="M1099.3,522.1h9.6l-14,23.3h-7.6L1099.3,522.1z M1088.1,553.1h8.4v115.5h-8.4V553.1z"/>
			<path class="st0" d="M1097.8,669.9h-10.9v-118h10.9V669.9z M1089.4,667.4h5.9V554.3h-5.9V667.4z M1095.6,546.6h-10.3l13.3-25.7
				h12.5L1095.6,546.6z M1089.3,544.1h4.9l12.5-20.8h-6.6L1089.3,544.1z"/>
		</g>
		<g>
			<path class="st0" d="M1145.6,627.2l-15.7,41.4h-8.6l44.2-115.5h8.3l44.2,115.5h-8.6l-15.7-41.4H1145.6z M1169.7,562.7l-21.2,56.8
				h42.3L1169.7,562.7z"/>
			<path class="st0" d="M1219.8,669.9h-11.2l-15.7-41.4h-46.5l-15.7,41.4h-11.2l45.2-118h10L1219.8,669.9z M1210.3,667.4h5.9
				l-43.3-113.1h-6.6L1123,667.4h5.9l15.7-41.4h49.9L1210.3,667.4z M1192.6,620.7h-45.8l22.9-61.6L1192.6,620.7z M1150.3,618.2h38.7
				l-19.3-52L1150.3,618.2z"/>
		</g>
		<g>
			<path class="st0" d="M1294.5,553.1h20.5c40.1,0,62.2,21.6,62.2,57.8c0,39-23.3,57.8-62.2,57.8h-20.5V553.1z M1318.4,660.9
				c30.7,0,50.2-17.2,50.2-50c0-31.2-19.5-50-50.2-50h-15.5v100H1318.4z"/>
			<path class="st0" d="M1314.9,669.9h-21.7v-118h21.7c40.3,0,63.5,21.5,63.5,59C1378.4,648.9,1355.8,669.9,1314.9,669.9z
				 M1295.7,667.4h19.2c39.9,0,61-19.6,61-56.5c0-35.9-22.2-56.5-61-56.5h-19.2V667.4z M1318.4,662.1h-16.8V559.6h16.8
				c31.7,0,51.4,19.6,51.4,51.2C1369.8,643.4,1351.1,662.1,1318.4,662.1z M1304.1,659.7h14.3c31.1,0,48.9-17.8,48.9-48.8
				c0-30.1-18.8-48.8-48.9-48.8h-14.3V659.7z"/>
		</g>
		<g>
			<path class="st0" d="M1406.4,553.1h52.7v7.8h-44.2v44.9h38.8v7.8h-38.8V661h46.1v7.8h-54.5L1406.4,553.1L1406.4,553.1z"/>
			<path class="st0" d="M1462.1,669.9h-56.9v-118h55.1v10.2h-44.2v42.4h38.8v10.2h-38.8v44.9h46.1L1462.1,669.9L1462.1,669.9z
				 M1407.6,667.4h52v-5.3h-46.1v-49.8h38.8V607h-38.8v-47.4h44.2v-5.3h-50.2L1407.6,667.4L1407.6,667.4z"/>
		</g>
		<g>
			<path class="st0" d="M1543.9,643.4c3.3,9.6,10.4,19.6,28.1,19.6c13.9,0,24.4-8.6,24.4-22.8c0-33.5-56.1-24.1-56.1-61.4
				c0-15.2,11.6-27.9,31.2-27.9c19.3,0,28.4,13,31.2,20.5l-7.1,2.6c-2.8-6.1-9.9-15.5-24.1-15.5c-15,0-22.8,9.2-22.8,20.5
				c0,29.9,56.3,23.3,56.3,60.7c0,17.2-12.7,31-33.2,31c-21.3,0-31.2-12.9-35.2-24.8L1543.9,643.4z"/>
			<path class="st0" d="M1571.8,672c-24.2,0-33.1-16-36.3-25.6l-0.4-1.1l9.6-3.5l0.4,1.2c4.4,12.7,13.2,18.8,26.9,18.8
				c13.9,0,23.2-8.7,23.2-21.5c0-15.5-12.7-21.4-26.2-27.6c-14.7-6.8-29.9-13.8-29.9-33.8c0-17.2,13.3-29.1,32.4-29.1
				c23.2,0,31,17.7,32.4,21.3l0.4,1.2l-9.3,3.5l-0.5-1c-2-4.4-8.4-14.8-23-14.8c-13.1,0-21.5,7.5-21.5,19.2
				c0,13.3,12.2,19.1,25.1,25.3c14.6,7,31.2,14.9,31.2,35.5C1606.2,658.8,1592,672,1571.8,672z M1538.2,646.8
				c3.3,9,11.9,22.8,33.6,22.8c18.8,0,31.9-12.3,31.9-29.8c0-19-15.2-26.2-29.8-33.2c-13.6-6.5-26.5-12.6-26.5-27.5
				c0-15,12.1-21.7,24-21.7c15,0,22,9.9,24.7,15.2l4.8-1.8c-2.2-4.9-9.9-18.5-29.6-18.5c-17.6,0-30,11-30,26.7
				c0,18.4,14.5,25.1,28.5,31.5c13.6,6.3,27.7,12.8,27.7,29.9c0,14.4-10.3,24-25.7,24c-14.3,0-24-6.5-28.8-19.3L1538.2,646.8z"/>
		</g>
		<g>
			<path class="st0" d="M1647.4,627.2l-15.7,41.4h-8.6l44.2-115.5h8.3l44.2,115.5h-8.6l-15.7-41.4H1647.4z M1671.5,562.7l-21.1,56.8
				h42.3L1671.5,562.7z"/>
			<path class="st0" d="M1721.6,669.9h-11.2l-15.7-41.4h-46.5l-15.7,41.4h-11.2l45.2-118h10L1721.6,669.9z M1712.1,667.4h5.9
				l-43.3-113.1h-6.6l-43.3,113.1h5.9l15.7-41.4h49.9L1712.1,667.4z M1694.4,620.7h-45.9l22.9-61.6L1694.4,620.7z M1652.1,618.2
				h38.7l-19.3-52L1652.1,618.2z"/>
		</g>
		<g>
			<path class="st0" d="M1744.6,553.1h8.4v107.8h46.1v7.8h-54.5V553.1z"/>
			<path class="st0" d="M1800.3,669.9h-56.9v-118h10.9v107.8h46.1L1800.3,669.9L1800.3,669.9z M1745.8,667.4h52v-5.3h-46.1V554.3
				h-5.9V667.4z"/>
		</g>
		<g>
			<path class="st0" d="M1822.3,628v-74.9h8.4v74.8c0,21.5,11.2,35,33.2,35s33.2-13.5,33.2-35v-74.8h8.4V628
				c0,25.9-15,42.8-41.6,42.8S1822.3,654,1822.3,628z"/>
			<path class="st0" d="M1863.9,672c-26.4,0-42.8-16.9-42.8-44v-76.2h10.9v76c0,21.8,11.3,33.8,31.9,33.8s31.9-12,31.9-33.8v-76
				h10.9V628C1906.8,655.2,1890.3,672,1863.9,672z M1823.6,554.3V628c0,26,15.1,41.5,40.4,41.5s40.4-15.5,40.4-41.5v-73.7h-5.9v73.5
				c0,23-12.5,36.2-34.4,36.2s-34.4-13.2-34.4-36.2v-73.5H1823.6z"/>
		</g>
		<g>
			<path class="st0" d="M1941,553.1h20.5c40.1,0,62.2,21.6,62.2,57.8c0,39-23.3,57.8-62.2,57.8H1941V553.1z M1964.9,660.9
				c30.7,0,50.2-17.2,50.2-50c0-31.2-19.5-50-50.2-50h-15.5v100H1964.9z"/>
			<path class="st0" d="M1961.5,669.9h-21.7v-118h21.7c40.3,0,63.5,21.5,63.5,59C2024.9,648.9,2002.4,669.9,1961.5,669.9z
				 M1942.2,667.4h19.2c39.9,0,61-19.6,61-56.5c0-35.9-22.2-56.5-61-56.5h-19.2V667.4z M1964.9,662.1h-16.8V559.6h16.8
				c31.7,0,51.4,19.6,51.4,51.2C2016.4,643.4,1997.6,662.1,1964.9,662.1z M1950.7,659.7h14.3c31.1,0,48.9-17.8,48.9-48.8
				c0-30.1-18.8-48.8-48.9-48.8h-14.3V659.7z"/>
		</g>
	</g>
	<g>
		<g>
			<rect x="-0.1" y="454.1" class="st0" width="2340.1" height="12.4"/>
		</g>
	</g>
</g>
</svg>