<?xml version="1.0" encoding="utf-8"?>
<!-- Generator: Adobe Illustrator 21.1.0, SVG Export Plug-In . SVG Version: 6.00 Build 0)  -->
<svg version="1.1" id="mapa" xmlns="http://www.w3.org/2000/svg" xmlns:xlink="http://www.w3.org/1999/xlink" x="0px" y="0px"
	 viewBox="0 0 40 40" style="enable-background:new 0 0 40 40;" xml:space="preserve">
<style type="text/css">
	.st0{fill:#606060;}
</style>
<g>
	<g>
		<g>
			<g>
				<path class="st0" d="M19.9,40c-4.9,0-9.5-1.9-13.1-5.2l-0.4-0.4L6.7,34c3-4.4,7.9-7,13.2-7c5.2,0,10.2,2.6,13.2,7l0.3,0.4
					L33,34.8C29.5,38.1,24.8,40,19.9,40z M8.1,34.2c3.3,2.9,7.5,4.5,11.8,4.5c4.4,0,8.6-1.6,11.8-4.5c-2.8-3.8-7.2-6-11.8-6
					C15.3,28.2,10.9,30.4,8.1,34.2z"/>
			</g>
		</g>
		<g>
			<path class="st0" d="M19.9,39.9C8.9,39.9,0,30.9,0,19.9S8.9,0,19.9,0s19.9,8.9,19.9,19.9S30.9,39.9,19.9,39.9z M19.9,1.4
				C9.7,1.4,1.4,9.7,1.4,19.9s8.3,18.6,18.6,18.6s18.6-8.3,18.6-18.6S30.2,1.4,19.9,1.4z"/>
		</g>
		<g>
			<path class="st0" d="M19.9,24.1c-4.9,0-9-4-9-9s4-9,9-9s9,4,9,9S24.9,24.1,19.9,24.1z M19.9,7.5c-4.2,0-7.7,3.5-7.7,7.7
				s3.5,7.7,7.7,7.7s7.7-3.5,7.7-7.7S24.2,7.5,19.9,7.5z"/>
		</g>
	</g>
</g>
</svg>
